#!OML:ASF X:\für Bonn\!DataBase\2005_08_11_Bastian_Final\c3d\Bastian.ASF
:FULLY-SPECIFIED
:DEGREES
393
root 0.649514 1.31357 20.043 -633.937 0.209944 -181.749
lowerback 31.0012 -8.99052 0.994968
upperback 26.852 -1.93711 -3.533
thorax 13.7178 4.76805 -2.81511
lowerneck 13.3962 -2.66377 -13.5666
upperneck 7.48466 -4.31838 2.05274
head 0.519042 -2.05988 3.21462
rclavicle 1.23246e-014 2.14687e-014
rhumerus -31.859 14.4176 -65.3936
rradius 48.9239
rwrist 11.1179
rhand -31.2203 7.9054
rfingers 7.12502
rthumb -4.49589 -22.0269
lclavicle 1.23246e-014 2.14687e-014
lhumerus -48.3972 -3.8334 76.8498
lradius 59.7508
lwrist 3.36014
lhand -34.3967 -6.66514
lfingers 7.12502
lthumb -7.56245 23.1797
rfemur -9.03512 9.1447 25.8263
rtibia 33.3842
rfoot -0.221488 -12.0591
rtoes -1.21799
lfemur -11.2759 8.19206 -15.6953
ltibia 38.6951
lfoot 11.3046 10.2439
ltoes -9.53309
394
root 0.653956 1.30776 20.0469 -634.282 0.179693 -181.877
lowerback 30.6572 -8.95021 1.1432
upperback 26.8271 -1.9717 -3.48881
thorax 13.8141 4.72467 -2.84906
lowerneck 13.4481 -2.6637 -13.5896
upperneck 7.71681 -4.29003 2.02872
head 0.586956 -2.04137 3.20812
rclavicle -2.54444e-014 1.59028e-014
rhumerus -31.8994 14.2075 -65.1985
rradius 49.1189
rwrist 11.1378
rhand -30.7514 8.01658
rfingers 7.12502
rthumb -4.04307 -21.9248
lclavicle -2.54444e-014 1.59028e-014
lhumerus -48.3305 -3.73721 76.7719
lradius 59.6909
lwrist 2.6104
lhand -34.221 -6.39149
lfingers 7.12502
lthumb -7.39287 23.4593
rfemur -8.59433 9.357 25.8738
rtibia 33.2489
rfoot -0.352618 -12.1593
rtoes -0.79238
lfemur -10.7824 8.28509 -15.6211
ltibia 38.4859
lfoot 11.1737 10.3583
ltoes -9.42187
395
root 0.658707 1.30224 20.0528 -634.628 0.121331 -182.007
lowerback 30.3299 -8.90802 1.28799
upperback 26.7818 -2.01078 -3.48329
thorax 13.8769 4.67829 -2.92633
lowerneck 13.4866 -2.66747 -13.541
upperneck 7.97165 -4.25324 1.98084
head 0.661534 -2.01688 3.17897
rclavicle -5.96354e-015 -1.82882e-014
rhumerus -32.0281 14.0746 -65.0788
rradius 49.4144
rwrist 11.1061
rhand -30.2958 8.10517
rfingers 7.12502
rthumb -3.60312 -21.8441
lclavicle -5.96354e-015 -1.82882e-014
lhumerus -48.3028 -3.71889 76.6505
lradius 59.6404
lwrist 1.88047
lhand -34.0732 -6.09644
lfingers 7.12502
lthumb -7.25018 23.7594
rfemur -8.16936 9.49737 25.8838
rtibia 33.1499
rfoot -0.484871 -12.2167
rtoes -0.299631
lfemur -10.2729 8.35502 -15.5798
ltibia 38.2632
lfoot 11.0311 10.4321
ltoes -9.52045
396
root 0.663311 1.29623 20.0582 -634.997 0.0679561 -182.132
lowerback 30.0526 -8.86 1.41774
upperback 26.727 -2.04092 -3.46066
thorax 13.9105 4.63316 -2.97906
lowerneck 13.5747 -2.65469 -13.5481
upperneck 8.19309 -4.2122 2.0014
head 0.71929 -1.99135 3.18605
rclavicle 1.19271e-015 8.74653e-015
rhumerus -32.1786 13.9698 -64.9501
rradius 49.7049
rwrist 11.0664
rhand -29.8542 8.16188
rfingers 7.12502
rthumb -3.17667 -21.7942
lclavicle 1.19271e-015 8.74653e-015
lhumerus -48.2852 -3.6626 76.5372
lradius 59.6009
lwrist 1.11618
lhand -33.8572 -5.90163
lfingers 7.12502
lthumb -7.04172 23.9612
rfemur -7.74101 9.6474 25.9139
rtibia 33.0771
rfoot -0.602024 -12.2942
rtoes -0.197795
lfemur -9.74229 8.44588 -15.5237
ltibia 38.033
lfoot 10.9352 10.5015
ltoes -9.45471
397
root 0.667857 1.29055 20.0641 -635.345 0.0126756 -182.246
lowerback 29.7326 -8.80531 1.57253
upperback 26.6658 -2.06778 -3.43942
thorax 13.9533 4.589 -3.04897
lowerneck 13.6732 -2.66917 -13.48
upperneck 8.42119 -4.19525 1.96848
head 0.776404 -1.9745 3.1608
rclavicle 3.97569e-015 1.11319e-014
rhumerus -32.3865 13.8612 -64.8497
rradius 50.0843
rwrist 10.938
rhand -29.404 8.25918
rfingers 7.12502
rthumb -2.74187 -21.7029
lclavicle 3.97569e-015 1.11319e-014
lhumerus -48.2934 -3.66497 76.4222
lradius 59.5886
lwrist 0.368039
lhand -33.6369 -5.65734
lfingers 7.12502
lthumb -6.82906 24.2125
rfemur -7.3485 9.76342 25.9272
rtibia 33.0186
rfoot -0.698324 -12.3451
rtoes -0.125565
lfemur -9.23017 8.49803 -15.4793
ltibia 37.7946
lfoot 10.8594 10.5144
ltoes -9.68474
398
root 0.670507 1.28472 20.0698 -635.691 -0.0221189 -182.381
lowerback 29.4112 -8.76006 1.75955
upperback 26.6139 -2.09682 -3.43245
thorax 14.0066 4.5534 -3.15075
lowerneck 13.7412 -2.66594 -13.4381
upperneck 8.63922 -4.16052 1.99957
head 0.835754 -1.95146 3.16225
rclavicle -3.73715e-014 1.59028e-014
rhumerus -32.5655 13.6301 -64.7379
rradius 50.4835
rwrist 10.8983
rhand -28.8842 8.34845
rfingers 7.12502
rthumb -2.23984 -21.6195
lclavicle -3.73715e-014 1.59028e-014
lhumerus -48.2346 -3.6321 76.2742
lradius 59.537
lwrist -0.37177
lhand -33.3109 -5.47492
lfingers 7.12502
lthumb -6.51438 24.4049
rfemur -6.95688 9.81984 25.9467
rtibia 32.9604
rfoot -0.832716 -12.3289
rtoes -0.00689697
lfemur -8.72482 8.56334 -15.4122
ltibia 37.5648
lfoot 10.7836 10.5374
ltoes -9.74717
399
root 0.672913 1.27831 20.0756 -636.049 -0.0758767 -182.484
lowerback 29.0998 -8.72199 1.90834
upperback 26.5682 -2.1376 -3.41085
thorax 14.0674 4.50803 -3.21324
lowerneck 13.7653 -2.66756 -13.4598
upperneck 8.8685 -4.13461 2.03237
head 0.909098 -1.93527 3.1757
rclavicle 1.55052e-014 1.19271e-014
rhumerus -32.7522 13.4473 -64.6073
rradius 50.9684
rwrist 10.8242
rhand -28.371 8.35883
rfingers 7.12502
rthumb -1.74425 -21.6138
lclavicle 1.55052e-014 1.19271e-014
lhumerus -48.1785 -3.54151 76.169
lradius 59.503
lwrist -1.14998
lhand -33.0293 -5.26734
lfingers 7.12502
lthumb -6.24249 24.6207
rfemur -6.55305 9.96351 25.9561
rtibia 32.8997
rfoot -0.960737 -12.4247
rtoes 0.119485
lfemur -8.21865 8.5655 -15.376
ltibia 37.3404
lfoot 10.7201 10.5657
ltoes -9.77732
400
root 0.675338 1.27256 20.0805 -636.433 -0.129038 -182.599
lowerback 28.8171 -8.68251 2.07733
upperback 26.5205 -2.16741 -3.41858
thorax 14.1124 4.47697 -3.32089
lowerneck 13.8304 -2.66996 -13.4271
upperneck 9.03449 -4.11813 2.09554
head 0.953802 -1.92272 3.19133
rclavicle 3.97569e-015 1.74931e-014
rhumerus -32.988 13.259 -64.5194
rradius 51.5055
rwrist 10.7635
rhand -27.8289 8.30636
rfingers 7.12502
rthumb -1.22063 -21.6699
lclavicle 3.97569e-015 1.74931e-014
lhumerus -48.122 -3.50185 76.0282
lradius 59.4738
lwrist -1.86734
lhand -32.7216 -5.11805
lfingers 7.12502
lthumb -5.94542 24.7785
rfemur -6.11633 10.0414 25.9637
rtibia 32.8421
rfoot -1.06017 -12.4359
rtoes 0.180496
lfemur -7.68209 8.62592 -15.3275
ltibia 37.1192
lfoot 10.6623 10.5242
ltoes -9.81362
401
root 0.677196 1.26605 20.0856 -636.769 -0.186255 -182.701
lowerback 28.491 -8.63429 2.25265
upperback 26.4603 -2.19819 -3.42031
thorax 14.1612 4.43863 -3.42801
lowerneck 13.8875 -2.67967 -13.2988
upperneck 9.21166 -4.09308 2.08768
head 0.998569 -1.90166 3.16326
rclavicle -7.55382e-015 -2.22639e-014
rhumerus -33.2164 13.0178 -64.4387
rradius 52.0485
rwrist 10.7843
rhand -27.1916 8.21664
rfingers 7.12502
rthumb -0.605142 -21.7622
lclavicle -7.55382e-015 -2.22639e-014
lhumerus -48.0687 -3.41431 75.8794
lradius 59.4254
lwrist -2.61682
lhand -32.4 -4.98376
lfingers 7.12502
lthumb -5.63496 24.9213
rfemur -5.73741 10.0913 25.9512
rtibia 32.7892
rfoot -1.16726 -12.5014
rtoes 0.14304
lfemur -7.20242 8.63135 -15.2976
ltibia 36.9034
lfoot 10.6128 10.4666
ltoes -9.97991
402
root 0.680045 1.26035 20.0908 -637.118 -0.26811 -182.809
lowerback 28.1741 -8.56879 2.36706
upperback 26.4026 -2.21541 -3.40553
thorax 14.2173 4.39719 -3.48625
lowerneck 13.9929 -2.66749 -13.2494
upperneck 9.31036 -4.06477 2.12296
head 1.01167 -1.88101 3.167
rclavicle -5.96354e-015 9.54166e-015
rhumerus -33.4615 12.8374 -64.3341
rradius 52.6069
rwrist 10.8318
rhand -26.556 8.06166
rfingers 7.12502
rthumb 0.00869681 -21.9181
lclavicle -5.96354e-015 9.54166e-015
lhumerus -47.9988 -3.26458 75.7521
lradius 59.3653
lwrist -3.38185
lhand -31.9914 -4.82172
lfingers 7.12502
lthumb -5.24044 25.0935
rfemur -5.34325 10.2051 25.9296
rtibia 32.7435
rfoot -1.22193 -12.6432
rtoes -0.222399
lfemur -6.70704 8.67035 -15.2847
ltibia 36.6905
lfoot 10.5594 10.4178
ltoes -9.77125
403
root 0.682474 1.25429 20.0958 -637.479 -0.320689 -182.913
lowerback 27.8838 -8.51459 2.51209
upperback 26.3346 -2.24337 -3.39401
thorax 14.2459 4.3535 -3.56409
lowerneck 14.0552 -2.66132 -13.1527
upperneck 9.45721 -4.02621 2.11652
head 1.04522 -1.85361 3.14553
rclavicle 1.70955e-014 1.59028e-014
rhumerus -33.6996 12.7567 -64.2433
rradius 53.1255
rwrist 10.9218
rhand -25.9082 7.84095
rfingers 7.12502
rthumb 0.63439 -22.1379
lclavicle 1.70955e-014 1.59028e-014
lhumerus -47.969 -3.16833 75.6505
lradius 59.3325
lwrist -4.05592
lhand -31.6735 -4.6163
lfingers 7.12502
lthumb -4.93346 25.3063
rfemur -4.94181 10.2666 25.9399
rtibia 32.705
rfoot -1.25246 -12.734
rtoes -0.410488
lfemur -6.20876 8.70119 -15.238
ltibia 36.4819
lfoot 10.532 10.3157
ltoes -9.90085
